<?xml version="1.0" encoding="UTF-8"?>
<svg version="1.1" xmlns="http://www.w3.org/2000/svg" width="896" height="366">
<path d="M0 0 C96.03 0 192.06 0 291 0 C291 40.92 291 81.84 291 124 C238.86 124 186.72 124 133 124 C133 126.64 133 129.28 133 132 C185.14 132 237.28 132 291 132 C291 170.61 291 209.22 291 249 C238.86 249 186.72 249 133 249 C133 284.64 133 320.28 133 357 C89.11 357 45.22 357 0 357 C0 239.19 0 121.38 0 0 Z " fill="#171616" transform="translate(0,0)"/>
<path d="M0 0 C2.12425199 3.62589811 4.24196194 7.25551275 6.35375977 10.88867188 C7.0726867 12.12343172 7.79337363 13.35716859 8.51586914 14.58984375 C9.5556219 16.36450778 10.58893548 18.14278586 11.62109375 19.921875 C12.2442749 20.99018555 12.86745605 22.05849609 13.50952148 23.15917969 C14.74861951 25.52087415 15.53621569 27.39841699 16 30 C10.25 34 10.25 34 8 34 C6.79492188 32.25585938 6.79492188 32.25585938 5.46875 29.84375 C4.74751953 28.55791016 4.74751953 28.55791016 4.01171875 27.24609375 C3.00390625 25.41536458 1.99609375 23.58463542 0.98828125 21.75390625 C0.26705078 20.46806641 0.26705078 20.46806641 -0.46875 19.15625 C-0.90638672 18.36025391 -1.34402344 17.56425781 -1.79492188 16.74414062 C-2.19259766 16.16857422 -2.59027344 15.59300781 -3 15 C-5.67550292 15 -6.89044641 16.05835252 -9.125 17.5 C-9.84945313 17.9640625 -10.57390625 18.428125 -11.3203125 18.90625 C-11.87460937 19.2671875 -12.42890625 19.628125 -13 20 C-12.54560547 20.75676025 -12.54560547 20.75676025 -12.08203125 21.52880859 C-10.71681731 23.80819079 -9.35834217 26.09151668 -8 28.375 C-7.52304687 29.1690625 -7.04609375 29.963125 -6.5546875 30.78125 C-6.10351562 31.54179687 -5.65234375 32.30234375 -5.1875 33.0859375 C-4.76855469 33.7876709 -4.34960938 34.4894043 -3.91796875 35.21240234 C-3 37 -3 37 -3 39 C-7.12210615 42.09157962 -7.12210615 42.09157962 -10.02441406 41.78881836 C-12.45831452 40.81700269 -13.05081606 39.93460786 -14.359375 37.69140625 C-14.75253906 37.02689453 -15.14570312 36.36238281 -15.55078125 35.67773438 C-16.14439453 34.63069336 -16.14439453 34.63069336 -16.75 33.5625 C-17.16121094 32.86833984 -17.57242187 32.17417969 -17.99609375 31.45898438 C-21 26.30444093 -21 26.30444093 -21 24 C-25.01175345 25.84323807 -27.03242441 27.84025479 -28.69458008 31.97875977 C-29.30881943 36.04373787 -26.81432555 39.14016621 -24.6875 42.4375 C-24.24470703 43.16904297 -23.80191406 43.90058594 -23.34570312 44.65429688 C-22.25382854 46.45060668 -21.12995464 48.22739696 -20 50 C-22.52788007 52.79872437 -24.20411134 54.45773019 -28 55 C-29.0055761 53.54550599 -30.00430435 52.08627557 -31 50.625 C-31.8353125 49.40683594 -31.8353125 49.40683594 -32.6875 48.1640625 C-34 46 -34 46 -34 44 C-36.65565787 46.39969682 -38.27998553 48.96444189 -40.046875 52.06640625 C-40.63662109 53.09572266 -41.22636719 54.12503906 -41.83398438 55.18554688 C-42.46626953 56.29994141 -43.09855469 57.41433594 -43.75 58.5625 C-44.41941347 59.73401461 -45.08934426 60.90523376 -45.75976562 62.07617188 C-47.15239997 64.50943834 -48.54279747 66.94396232 -49.93164062 69.37939453 C-53.10029752 74.93157569 -56.30175211 80.4648313 -59.5 86 C-60.73454501 88.13922481 -61.9689189 90.27854839 -63.203125 92.41796875 C-64.12834961 94.02164307 -64.12834961 94.02164307 -65.07226562 95.65771484 C-66.75542197 98.57595323 -68.43796834 101.49454145 -70.12011719 104.4133606 C-71.49806938 106.80426597 -72.87634172 109.19498672 -74.25463867 111.58569336 C-75.22540982 113.26983963 -76.19571874 114.95425231 -77.16601562 116.63867188 C-77.75576172 117.66154297 -78.34550781 118.68441406 -78.953125 119.73828125 C-79.47036133 120.63587158 -79.98759766 121.53346191 -80.52050781 122.45825195 C-82 125 -82 125 -83.75292969 127.51635742 C-85.21320492 129.91204229 -85.21320492 129.91204229 -84.86352539 132.51098633 C-83.91817205 135.23585977 -82.73974371 137.39512421 -81.18359375 139.82421875 C-80.59231689 140.7572583 -80.00104004 141.69029785 -79.3918457 142.65161133 C-78.74691162 143.65345459 -78.10197754 144.65529785 -77.4375 145.6875 C-76.06411444 147.85093452 -74.6917536 150.01501983 -73.3203125 152.1796875 C-72.96542252 152.7378566 -72.61053253 153.2960257 -72.24488831 153.87110901 C-68.36638151 159.9766241 -64.58985407 166.14402287 -60.8125 172.3125 C-56.25509866 179.73866899 -51.6707109 187.14454976 -47 194.5 C-42.45898741 201.65687609 -37.97225212 208.84656295 -33.52026367 216.05908203 C-32.46240608 217.77216731 -31.40213025 219.48375853 -30.34179688 221.1953125 C-29.69146484 222.25105469 -29.04113281 223.30679688 -28.37109375 224.39453125 C-27.79286865 225.33143799 -27.21464355 226.26834473 -26.61889648 227.23364258 C-24.9425414 230.0981848 -23.47147221 233.02606049 -22 236 C-34.61125416 236.65206862 -47.21844275 237.14778776 -59.84318447 237.45074081 C-65.70827571 237.59626283 -71.56176226 237.79296836 -77.42016602 238.11230469 C-116.44935427 240.18499549 -116.44935427 240.18499549 -124.73458862 233.35272217 C-130.74835162 227.24781745 -133.85014706 219.5271465 -136.6410675 211.55513 C-138.77687061 205.96761353 -141.94850558 201.12635977 -145.1875 196.125 C-146.31820734 194.2852523 -147.44508731 192.44314116 -148.56640625 190.59765625 C-149.12344238 189.69031738 -149.68047852 188.78297852 -150.25439453 187.84814453 C-151.47318949 185.85954845 -152.68734291 183.86810343 -153.89794922 181.87451172 C-155.792518 178.76135934 -157.70630645 175.66082733 -159.625 172.5625 C-160.20531982 171.60166504 -160.78563965 170.64083008 -161.38354492 169.65087891 C-162.20302612 168.34062744 -162.20302612 168.34062744 -163.0390625 167.00390625 C-163.51553223 166.22861572 -163.99200195 165.4533252 -164.48291016 164.65454102 C-164.9835498 164.10854248 -165.48418945 163.56254395 -166 163 C-167.32 163 -168.64 163 -170 163 C-168.08460488 166.0424691 -166.16745429 169.08382831 -164.25 172.125 C-163.44175781 173.40890625 -163.44175781 173.40890625 -162.6171875 174.71875 C-162.08867188 175.55664062 -161.56015625 176.39453125 -161.015625 177.2578125 C-160.50193359 178.07797852 -159.98824219 178.89814453 -159.45898438 179.74316406 C-158.21925548 181.66084376 -156.90914756 183.47464665 -155.546875 185.3046875 C-154 188 -154 188 -153.92578125 190.3515625 C-155.54317338 194.33916928 -157.8284194 197.78764394 -160.1875 201.375 C-161.27275537 203.05605239 -162.3559962 204.73840659 -163.4375 206.421875 C-164.01242187 207.31583984 -164.58734375 208.20980469 -165.1796875 209.13085938 C-169.06688356 215.25778106 -172.79212782 221.48509575 -176.54174805 227.69677734 C-177.10933838 228.63473145 -177.67692871 229.57268555 -178.26171875 230.5390625 C-178.76662842 231.37646973 -179.27153809 232.21387695 -179.79174805 233.07666016 C-181 235 -181 235 -182 236 C-184.29505994 236.10372963 -186.5933806 236.13524239 -188.89077759 236.14044189 C-189.6201715 236.14341302 -190.34956542 236.14638414 -191.10106218 236.1494453 C-193.56429371 236.15817043 -196.02747686 236.15964382 -198.49072266 236.16113281 C-200.24976201 236.16575877 -202.00880036 236.17078313 -203.76783752 236.17617798 C-208.56408667 236.18933663 -213.36032178 236.19575516 -218.15658617 236.20018864 C-221.15630692 236.20311743 -224.15602383 236.20722215 -227.15574265 236.21169281 C-236.54930562 236.22538485 -245.94285983 236.23503974 -255.3364321 236.2388947 C-266.16194429 236.24336176 -276.98732935 236.26083934 -287.81280291 236.2898953 C-296.18666387 236.31158537 -304.5604893 236.32160309 -312.93437803 236.32293582 C-317.93101912 236.32397981 -322.927541 236.32979904 -327.92415237 236.34775543 C-332.63716992 236.36436009 -337.34998033 236.36633212 -342.06301689 236.35761642 C-343.78215913 236.35685228 -345.50131306 236.36110527 -347.22042656 236.37107468 C-373.45141589 236.51411702 -397.52833495 228.90653154 -418 212 C-418.93714844 211.22785156 -419.87429688 210.45570313 -420.83984375 209.66015625 C-441.79610094 191.52549891 -455.17212365 164.76709136 -457.21142578 137.13525391 C-458.64639374 106.29115778 -450.11718053 78.57666441 -429.75 54.9375 C-409.28770428 32.86620325 -381.63049514 22.15863756 -351.83203125 20.77734375 C-329.77512492 20.13437313 -307.03416542 23.57703392 -287 33 C-286.07574219 33.42925781 -285.15148437 33.85851562 -284.19921875 34.30078125 C-276.64543624 38.09369892 -270.99914685 43.12849457 -265 49 C-265.54269531 47.98679688 -266.08539062 46.97359375 -266.64453125 45.9296875 C-267.36722969 44.57814756 -268.08988357 43.22658379 -268.8125 41.875 C-269.16892578 41.20984375 -269.52535156 40.5446875 -269.89257812 39.859375 C-270.24384766 39.20195312 -270.59511719 38.54453125 -270.95703125 37.8671875 C-271.27647705 37.27019043 -271.59592285 36.67319336 -271.92504883 36.05810547 C-273.31852904 33.39014314 -274.65390861 30.69218277 -276 28 C-243.33 28 -210.66 28 -177 28 C-172.38 36.91 -167.76 45.82 -163 55 C-157.38779135 66.210468 -157.38779135 66.210468 -151 77 C-147.76081952 70.66467765 -144.52191528 64.32921412 -141.28320312 57.99365234 C-140.18137878 55.83834635 -139.07949118 53.6830727 -137.97753906 51.52783203 C-136.39371378 48.43009807 -134.81011593 45.33224794 -133.2265625 42.234375 C-132.48740097 40.78886261 -132.48740097 40.78886261 -131.73330688 39.31414795 C-131.27298065 38.41351624 -130.81265442 37.51288452 -130.33837891 36.58496094 C-129.73215195 35.39915436 -129.73215195 35.39915436 -129.11367798 34.18939209 C-128.0665912 32.13091238 -127.03283391 30.06566782 -126 28 C-85.905 27.505 -85.905 27.505 -45 27 C-45 26.34 -45 25.68 -45 25 C-44.40799805 24.6690332 -43.81599609 24.33806641 -43.20605469 23.99707031 C-31.39646663 17.38461118 -19.64974477 10.7040397 -8.12207031 3.60839844 C-7.3431543 3.13305664 -6.56423828 2.65771484 -5.76171875 2.16796875 C-5.08069092 1.74797607 -4.39966309 1.3279834 -3.69799805 0.89526367 C-2 0 -2 0 0 0 Z M-248 78 C-247.93143799 78.57975586 -247.86287598 79.15951172 -247.79223633 79.75683594 C-245.67965052 98.94978202 -244.93613913 117.82614937 -255.2421875 134.81640625 C-258.62152409 139.01429326 -261.25247065 141.68698748 -266.56881714 142.63923645 C-268.54738205 142.6492292 -268.54738205 142.6492292 -270.56591797 142.65942383 C-271.29831192 142.66990753 -272.03070587 142.68039124 -272.78529358 142.69119263 C-275.18802896 142.71982191 -277.58931296 142.71366607 -279.9921875 142.70703125 C-281.66514888 142.72015377 -283.33809443 142.7354597 -285.01101685 142.75285339 C-289.4004759 142.79265202 -293.78952 142.80289048 -298.17913818 142.80688477 C-302.66382392 142.81622596 -307.14826683 142.85364564 -311.6328125 142.88867188 C-320.42187954 142.95319537 -329.2107072 142.98647831 -338 143 C-338 142.34 -338 141.68 -338 141 C-337.4225 140.773125 -336.845 140.54625 -336.25 140.3125 C-332.43916226 138.08951132 -330.38070336 135.14211008 -329 131 C-328.2086303 124.63512659 -328.74349635 119.90874876 -332.50390625 114.625 C-336.1437425 110.67154862 -341.12544587 109.25037992 -346.33203125 108.796875 C-352.42943323 108.68164851 -357.73786422 108.98078923 -362.46875 113.359375 C-367.23748246 118.73806162 -368.47340381 123.41056953 -368.31640625 130.43359375 C-367.65949902 135.76184132 -365.3888736 139.57358928 -361.6875 143.375 C-355.15758622 147.32331996 -348.71357416 147.28124987 -341.29125977 147.22705078 C-340.23685196 147.22734283 -339.18244415 147.22763489 -338.09608459 147.22793579 C-334.62777336 147.22654786 -331.15967974 147.21101176 -327.69140625 147.1953125 C-325.2800254 147.19158047 -322.86864304 147.18873439 -320.45726013 147.18673706 C-314.12301416 147.17911562 -307.78886049 147.15947983 -301.45465088 147.1373291 C-294.98605599 147.11683864 -288.51744614 147.1077285 -282.04882812 147.09765625 C-269.36583842 147.07623259 -256.68294134 147.0410625 -244 147 C-244 156.24 -244 165.48 -244 175 C-241.42041576 171.7755197 -239.23349639 168.93883621 -237.1171875 165.48046875 C-236.59390869 164.6304126 -236.07062988 163.78035645 -235.53149414 162.90454102 C-234.98485107 162.00791748 -234.43820801 161.11129395 -233.875 160.1875 C-227.23933954 149.30774033 -227.23933954 149.30774033 -223.85546875 144.2734375 C-223.38189941 143.55776611 -222.90833008 142.84209473 -222.42041016 142.10473633 C-221.5367771 140.77579162 -220.63738485 139.45714778 -219.72021484 138.15112305 C-218.34800076 136.16160735 -218.34800076 136.16160735 -217 133 C-218.08472099 128.60205271 -220.01424283 124.93024137 -222.2734375 121.02734375 C-222.92828125 119.88942383 -223.583125 118.75150391 -224.2578125 117.57910156 C-224.96345731 116.36518533 -225.66918815 115.15131912 -226.375 113.9375 C-227.09429846 112.69139716 -227.81304381 111.44497489 -228.53125 110.19824219 C-229.98295692 107.6794342 -231.43723737 105.16214107 -232.89355469 102.64599609 C-235.95087643 97.35982083 -238.97478604 92.0545931 -242 86.75 C-242.979 85.03636311 -243.9581485 83.32281103 -244.9375 81.609375 C-245.625 80.40625 -246.3125 79.203125 -247 78 C-247.33 78 -247.66 78 -248 78 Z " fill="#181717" transform="translate(880,130)"/>
<path d="M0 0 C30.36 0 60.72 0 92 0 C92.28212124 50.14145268 92.28212124 50.14145268 92.34179688 71.23242188 C92.38325315 85.76702257 92.43185798 100.30133819 92.52807617 114.83569336 C92.59813317 125.42334081 92.64307528 136.01075588 92.65861946 146.5986287 C92.66769714 152.19816422 92.68883329 157.79703531 92.7401104 163.39635658 C92.78811311 168.68163539 92.80218342 173.96598491 92.79175377 179.25146103 C92.79365792 181.17698809 92.80728853 183.10255075 92.83443832 185.02788734 C93.00815642 197.99855138 90.86130957 208.16662851 85.76734269 220.10085237 C84.20298985 223.97257361 83.35754984 227.96688044 82.625 232.0625 C82.47417969 232.77986328 82.32335937 233.49722656 82.16796875 234.23632812 C80.51693241 242.83486695 80.49408988 251.10638212 80 260 C53.6 260 27.2 260 0 260 C0 174.2 0 88.4 0 0 Z " fill="#191717" transform="translate(330,2)"/>
<path d="M0 0 C4.92674969 1.53027831 8.19360426 4.41533706 12 7.75 C12.60328125 8.26304688 13.2065625 8.77609375 13.828125 9.3046875 C24.72795051 18.73540609 24.72795051 18.73540609 25.3125 25.75 C25.21739263 31.5938195 22.2854232 34.68468324 18.3125 38.75 C15.70118788 40.89035216 13.87052664 41.19830002 10.546875 41.4765625 C8.12524409 41.87147288 8.12524409 41.87147288 6 43 C3.84406215 46.30549288 2.93296056 49.8318236 1.9375 53.625 C1.64423828 54.61757812 1.35097656 55.61015625 1.04882812 56.6328125 C0.33091419 59.08078132 -0.3498255 61.53333895 -1 64 C-7.72112462 59.9893617 -7.72112462 59.9893617 -9 58 C-8.87757304 52.2459328 -6.73456079 47.12145812 -4.7421875 41.76953125 C-3.97295871 38.89909329 -3.75903166 37.67241088 -5 35 C-6.6062744 33.45735198 -6.6062744 33.45735198 -8.5625 32.25 C-9.20316406 31.82203125 -9.84382812 31.3940625 -10.50390625 30.953125 C-10.99761719 30.63859375 -11.49132812 30.3240625 -12 30 C-12.23460937 30.54140625 -12.46921875 31.0828125 -12.7109375 31.640625 C-14.3583644 34.65591544 -16.42653344 37.11184012 -18.625 39.75 C-19.44226563 40.73484375 -20.25953125 41.7196875 -21.1015625 42.734375 C-22.04128906 43.85585937 -22.04128906 43.85585937 -23 45 C-27.3774331 43.44648311 -29.29116707 41.81243153 -32 38 C-31.29037109 37.21689453 -31.29037109 37.21689453 -30.56640625 36.41796875 C-26.0426158 31.38271661 -21.70166414 26.23273705 -17.4375 20.9765625 C-14.27306898 17.11230539 -11.04460478 13.30458032 -7.80541992 9.50292969 C-5.14728351 6.37801531 -2.54615134 3.21681591 0 0 Z M2 13 C0.18371224 14.94375954 0.18371224 14.94375954 -1.625 17.375 C-2.25664063 18.18710938 -2.88828125 18.99921875 -3.5390625 19.8359375 C-5.18650808 21.84109879 -5.18650808 21.84109879 -5 24 C-2.70516245 26.05506783 -2.70516245 26.05506783 0.1875 28.125 C1.15042969 28.84945312 2.11335937 29.57390625 3.10546875 30.3203125 C6.14304567 32.08300896 7.56767584 32.47075279 11 32 C12.95625978 31.04451019 12.95625978 31.04451019 14 29 C15.08898382 25.76305184 15.08898382 25.76305184 14 22 C10.98922459 18.58778786 7.68708134 15.66557848 4 13 C3.34 13 2.68 13 2 13 Z " fill="#272525" transform="translate(827,80)"/>
<path d="M0 0 C0.42954115 6.45940345 0.85652399 12.91897239 1.28173828 19.37866211 C1.42665817 21.57564107 1.5721612 23.77258165 1.71826172 25.96948242 C1.92829674 29.12929505 2.1362265 32.2892403 2.34375 35.44921875 C2.40937134 36.42960617 2.47499268 37.40999359 2.54260254 38.42008972 C2.60266479 39.34066666 2.66272705 40.26124359 2.72460938 41.2097168 C2.77790405 42.0157988 2.83119873 42.8218808 2.8861084 43.65238953 C3.00544359 46.11220694 3.08671198 48.5381532 3 51 C2.67 51.33 2.34 51.66 2 52 C-1.3 52 -4.6 52 -8 52 C-8.495 41.605 -8.495 41.605 -9 31 C-11.31 31.33 -13.62 31.66 -16 32 C-18.4784122 32.06460929 -20.95835823 32.08611087 -23.4375 32.0625 C-24.67371094 32.05347656 -25.90992188 32.04445312 -27.18359375 32.03515625 C-28.11300781 32.02355469 -29.04242187 32.01195312 -30 32 C-29.83628906 32.64324219 -29.67257812 33.28648438 -29.50390625 33.94921875 C-28.84665324 37.92840171 -28.893647 41.7881437 -28.9375 45.8125 C-28.94201172 46.60076172 -28.94652344 47.38902344 -28.95117188 48.20117188 C-28.96288688 50.13414761 -28.98082002 52.06708393 -29 54 C-32.3 54 -35.6 54 -39 54 C-39.42981756 47.70134377 -39.85698919 41.40251568 -40.28173828 35.10351562 C-40.42652319 32.96186507 -40.57202376 30.82026277 -40.71826172 28.67871094 C-40.92865344 25.59582813 -41.13644854 22.51277946 -41.34375 19.4296875 C-41.40937134 18.47633514 -41.47499268 17.52298279 -41.54260254 16.54074097 C-41.84431655 12.01730732 -42.07924643 7.5368583 -42 3 C-38.74696956 1.37348478 -35.60774398 1.88546844 -32 2 C-30.41596476 3.58403524 -30.78025065 5.2771638 -30.68359375 7.47265625 C-30.62075195 8.82133789 -30.62075195 8.82133789 -30.55664062 10.19726562 C-30.51732422 11.14279297 -30.47800781 12.08832031 -30.4375 13.0625 C-30.39431641 14.01189453 -30.35113281 14.96128906 -30.30664062 15.93945312 C-30.20020724 18.29281353 -30.09818992 20.64628354 -30 23 C-28.824375 22.83628906 -27.64875 22.67257813 -26.4375 22.50390625 C-22.60608258 22.02497907 -18.86483458 21.89724131 -15 21.9375 C-13.865625 21.94652344 -12.73125 21.95554687 -11.5625 21.96484375 C-10.716875 21.97644531 -9.87125 21.98804687 -9 22 C-9.24447876 21.13713379 -9.24447876 21.13713379 -9.49389648 20.25683594 C-9.99037528 18.04291893 -10.11479744 16.15326203 -10.09765625 13.890625 C-10.09443359 13.13652344 -10.09121094 12.38242187 -10.08789062 11.60546875 C-10.07951172 10.82816406 -10.07113281 10.05085938 -10.0625 9.25 C-10.05798828 8.45722656 -10.05347656 7.66445313 -10.04882812 6.84765625 C-10.03708565 4.89840492 -10.01915146 2.94919262 -10 1 C-6.52674819 -0.1577506 -3.63932552 -0.06866652 0 0 Z " fill="#292828" transform="translate(724,44)"/>
<path d="M0 0 C1.02744407 0.97178119 2.03621913 1.96504762 3 3 C2 6 2 6 -0.75 7.8125 C-4 9 -4 9 -6.5 8.25 C-7.325 7.8375 -8.15 7.425 -9 7 C-12.91627064 5.89322786 -14.83910961 5.9551617 -18.8125 7.0625 C-22.297772 8.69119648 -22.297772 8.69119648 -22.9375 12.1875 C-22.958125 13.115625 -22.97875 14.04375 -23 15 C-19.60524513 17.26316991 -18.93198488 17.17045826 -15.0625 16.6875 C-13.78052734 16.53861328 -13.78052734 16.53861328 -12.47265625 16.38671875 C-10.07050742 16.05620206 -10.07050742 16.05620206 -8.05078125 15.4765625 C-2.15482665 14.10645495 4.06457231 14.11717333 9.5625 16.625 C13.53641146 20.4970163 15.14723202 23.93177187 15.4375 29.4375 C15.23022059 34.01300097 14.14036431 37.59929461 11 41 C4.53634625 46.29287873 -2.65101043 48.85029398 -11 49 C-16.16937279 48.08574729 -20.23347249 45.65239032 -24 42 C-24.495 40.515 -24.495 40.515 -25 39 C-18.64086687 34.96439628 -18.64086687 34.96439628 -15.75 35.125 C-14 36 -14 36 -11 38 C-5.47296949 38.44572827 -2.62579216 38.26526505 2 35 C2.66 35 3.32 35 4 35 C4.26932521 30.34947128 4.26932521 30.34947128 3 26 C-2.55065362 25.81005368 -7.75559639 25.80378517 -13.1875 27.0625 C-18.32044958 28.18507851 -22.97627562 28.74032137 -27.7578125 25.98828125 C-31.08248422 23.4425785 -33.03374072 21.058289 -34 17 C-34.52252712 12.29725594 -34.09593633 8.78147408 -31.5390625 4.70703125 C-23.10854191 -4.64357153 -10.44587274 -6.92531253 0 0 Z " fill="#282727" transform="translate(651,65)"/>
<path d="M0 0 C1.64696604 0.4752588 3.29254728 0.95531891 4.9375 1.4375 C5.85402344 1.70433594 6.77054688 1.97117188 7.71484375 2.24609375 C10 3 10 3 11 4 C11.1600609 6.2741589 11.25174241 8.55316381 11.31640625 10.83203125 C11.34764587 11.8821917 11.34764587 11.8821917 11.3795166 12.9535675 C11.44572519 15.23976569 11.50442118 17.52608192 11.5625 19.8125 C11.60529578 21.36898039 11.6481832 22.92545825 11.69116211 24.48193359 C11.98880343 35.65587557 12.12358802 46.82214997 12 58 C10.51988629 57.69201674 9.04092675 57.378482 7.5625 57.0625 C6.73878906 56.88847656 5.91507813 56.71445313 5.06640625 56.53515625 C3 56 3 56 2 55 C1.76636119 53.15108054 1.58696365 51.29511969 1.4375 49.4375 C1.35371094 48.42558594 1.26992188 47.41367188 1.18359375 46.37109375 C1.12300781 45.58863281 1.06242188 44.80617187 1 44 C-1.43572059 43.16112944 -3.87333217 42.32873471 -6.3125 41.5 C-7.00279297 41.26152344 -7.69308594 41.02304688 -8.40429688 40.77734375 C-11.38931489 39.76791737 -13.82658914 39 -17 39 C-18.6877081 40.76401402 -18.6877081 40.76401402 -20.1875 43 C-20.98220703 44.11375 -20.98220703 44.11375 -21.79296875 45.25 C-22.19128906 45.8275 -22.58960938 46.405 -23 47 C-25.97 46.01 -28.94 45.02 -32 44 C-30.91321742 39.65286968 -29.07070006 37.24490348 -26.3125 33.875 C-25.31444494 32.63073683 -24.31708422 31.38591648 -23.3203125 30.140625 C-22.51835449 29.14385742 -22.51835449 29.14385742 -21.70019531 28.12695312 C-18.65873013 24.32206446 -15.67550429 20.47191077 -12.6875 16.625 C-12.11362549 15.88878418 -11.53975098 15.15256836 -10.94848633 14.39404297 C-7.24529327 9.63547473 -3.60135383 4.8360804 0 0 Z M1 14 C-0.7127541 16.05768374 -2.36642387 18.13088874 -4 20.25 C-4.4640625 20.83652344 -4.928125 21.42304687 -5.40625 22.02734375 C-7.69715337 24.990867 -9.2669147 27.33258141 -10 31 C-8.56445975 31.50559908 -7.1264798 32.0042749 -5.6875 32.5 C-4.88699219 32.7784375 -4.08648438 33.056875 -3.26171875 33.34375 C-0.91230578 34.13933107 -0.91230578 34.13933107 2 34 C2 27.4 2 20.8 2 14 C1.67 14 1.34 14 1 14 Z " fill="#262424" transform="translate(773,53)"/>
</svg>
