<?xml version="1.0" encoding="UTF-8"?>
<svg version="1.1" xmlns="http://www.w3.org/2000/svg" width="901" height="368">
<path d="M0 0 C96.03 0 192.06 0 291 0 C291 40.92 291 81.84 291 124 C238.86 124 186.72 124 133 124 C133 126.64 133 129.28 133 132 C185.14 132 237.28 132 291 132 C291 170.61 291 209.22 291 249 C238.86 249 186.72 249 133 249 C133 284.64 133 320.28 133 357 C89.11 357 45.22 357 0 357 C0 239.19 0 121.38 0 0 Z " fill="#FEF8F8" transform="translate(1,4)"/>
<path d="M0 0 C4.14537035 2.80950069 6.25736666 8.03339868 8.70834351 12.31915283 C9.76192745 14.15268156 10.84309528 15.96783584 11.92709351 17.7835083 C12.60070768 18.94526204 13.27264188 20.10799184 13.94271851 21.27178955 C14.55615112 22.32737061 15.16958374 23.38295166 15.80160522 24.47052002 C16.88803101 27.27960205 16.88803101 27.27960205 16.26742554 29.57696533 C14.24372918 32.07488718 11.92830057 32.48648825 8.88803101 33.27960205 C7.42507104 30.88648852 5.9675788 28.49032119 4.51303101 26.09210205 C4.10053101 25.41856689 3.68803101 24.74503174 3.26303101 24.05108643 C2.86342163 23.39044189 2.46381226 22.72979736 2.05209351 22.0491333 C1.68551636 21.44689941 1.31893921 20.84466553 0.94125366 20.22418213 C-0.26304728 18.00066404 -1.17282974 15.62745019 -2.11196899 13.27960205 C-7.06196899 15.75460205 -7.06196899 15.75460205 -12.11196899 18.27960205 C-10.04679252 23.44254324 -7.42496403 27.75213699 -4.47525024 32.4397583 C-3.11196899 35.27960205 -3.11196899 35.27960205 -3.25259399 37.5413208 C-4.56240871 40.19071875 -6.51550842 41.01303592 -9.11196899 42.27960205 C-9.77196899 42.27960205 -10.43196899 42.27960205 -11.11196899 42.27960205 C-14.41196899 36.33960205 -17.71196899 30.39960205 -21.11196899 24.27960205 C-24.41196899 25.92960205 -27.71196899 27.57960205 -31.11196899 29.27960205 C-30.56927368 30.22061768 -30.02657837 31.1616333 -29.46743774 32.13116455 C-28.74469383 33.38892668 -28.02204251 34.64674202 -27.29946899 35.90460205 C-26.94304321 36.52206299 -26.58661743 37.13952393 -26.21939087 37.7756958 C-21.60192258 45.82449374 -21.60192258 45.82449374 -20.11196899 49.27960205 C-20.44196899 50.26960205 -20.77196899 51.25960205 -21.11196899 52.27960205 C-23.42196899 53.26960205 -25.73196899 54.25960205 -28.11196899 55.27960205 C-31.08196899 50.32960205 -34.05196899 45.37960205 -37.11196899 40.27960205 C-40.01820193 43.91239323 -42.22917593 46.99926717 -44.47525024 50.9788208 C-45.107052 52.09224854 -45.73885376 53.20567627 -46.38980103 54.35284424 C-46.7209491 54.94109985 -47.05209717 55.52935547 -47.39328003 56.13543701 C-48.80598058 58.64476779 -50.22846993 61.14850502 -51.650177 63.65274048 C-52.38563246 64.94853224 -53.12057292 66.24461643 -53.85501099 67.54098511 C-57.45154637 73.88829845 -61.08854178 80.21198126 -64.73696899 86.52960205 C-65.34266724 87.57897949 -65.94836548 88.62835693 -66.57241821 89.70953369 C-73.04987103 100.92037696 -79.57574146 112.10294252 -86.11196899 123.27960205 C-81.58979722 131.12467664 -76.93512473 138.86628047 -72.11196899 146.52960205 C-70.78773475 148.6415715 -69.46351644 150.75355095 -68.13931274 152.86553955 C-67.13553589 154.46413818 -67.13553589 154.46413818 -66.11148071 156.09503174 C-62.96137871 161.11211728 -59.81655996 166.1324961 -56.67446899 171.15460205 C-56.06184204 172.13340332 -55.44921509 173.11220459 -54.81802368 174.1206665 C-49.44451146 182.71926612 -44.14244205 191.36104925 -38.84658813 200.00762939 C-34.42067272 207.21311847 -29.90214167 214.34834986 -25.20864868 221.38287354 C-22.11196899 226.07073489 -22.11196899 226.07073489 -22.11196899 228.27960205 C-34.81128848 228.72109072 -47.50876675 229.05802662 -60.21421432 229.26403332 C-66.11535538 229.36294909 -72.01122596 229.49689368 -77.90933228 229.71295166 C-83.60921489 229.92042579 -89.30405518 230.03318739 -95.0074234 230.08226967 C-97.17536117 230.11720705 -99.34304147 230.18545374 -101.50881195 230.28847313 C-117.97700033 231.04018685 -117.97700033 231.04018685 -123.15776062 226.47812271 C-126.85835265 221.99837476 -129.44901669 217.05856278 -131.886693 211.80936909 C-133.92189465 207.60738841 -136.40557933 203.68244496 -138.86196899 199.71710205 C-139.84825791 198.06512344 -140.83407597 196.41286339 -141.81900024 194.7600708 C-145.67567989 188.31710489 -149.61076675 181.9225909 -153.54946899 175.52960205 C-154.22397095 174.43446289 -154.8984729 173.33932373 -155.59341431 172.21099854 C-156.86050303 170.15617869 -158.131903 168.10400877 -159.40835571 166.05499268 C-160.48553403 164.30013983 -161.53765073 162.52943349 -162.55386353 160.73858643 C-163.91726427 158.29243254 -163.91726427 158.29243254 -166.11196899 155.27960205 C-167.43196899 155.27960205 -168.75196899 155.27960205 -170.11196899 155.27960205 C-164.83196899 163.85960205 -159.55196899 172.43960205 -154.11196899 181.27960205 C-158.06160221 188.52059629 -162.04599496 195.56457515 -166.42446899 202.52960205 C-167.48425496 204.22156421 -168.54281766 205.9142931 -169.60025024 207.60772705 C-170.13810119 208.43695773 -170.67595213 209.26618841 -171.23010159 210.12054729 C-172.61916212 212.45233659 -173.72642775 214.59091584 -174.80719852 217.05264759 C-177.470836 222.76785898 -179.67650485 227.37314452 -185.80062675 229.6524868 C-190.40780603 230.34808466 -195.00405058 230.18382009 -199.6468811 230.04595947 C-201.42195585 230.04827958 -203.19703224 230.05715905 -204.9720459 230.07206726 C-209.77841838 230.0934051 -214.57935265 230.02184114 -219.38477015 229.93223739 C-224.4330351 229.85298758 -229.4812878 229.85625805 -234.53007507 229.84950256 C-243.01705543 229.82648362 -251.50200685 229.74789795 -259.9881897 229.63092041 C-270.83202033 229.48164758 -281.67446488 229.41868223 -292.51920223 229.38531017 C-301.89081556 229.35624724 -311.26214131 229.29207531 -320.63350987 229.21985078 C-323.62001568 229.19771384 -326.60652996 229.17929653 -329.59306145 229.16100121 C-334.31880632 229.12936242 -339.04387091 229.07583467 -343.769207 229.00643349 C-345.48862955 228.98386641 -347.20814825 228.96748823 -348.92769432 228.95829773 C-376.48351519 228.79521343 -402.59177924 220.13517465 -423.11196899 201.27960205 C-423.60149048 200.8324585 -424.09101196 200.38531494 -424.59536743 199.92462158 C-444.34303551 181.68589073 -457.87239348 155.99613798 -459.23306274 128.86505127 C-460.31044729 99.60867388 -453.73611715 71.75306415 -434.11196899 49.27960205 C-433.59505493 48.61960205 -433.07814087 47.95960205 -432.54556274 47.27960205 C-415.46757526 26.04982312 -387.97707227 15.46970919 -361.61196899 12.59210205 C-359.77996102 12.46676817 -357.94633884 12.36356073 -356.11196899 12.27960205 C-355.08974243 12.22675049 -354.06751587 12.17389893 -353.01431274 12.1194458 C-322.89891629 11.33855052 -294.0077044 17.43873375 -270.11196899 36.27960205 C-268.78024201 37.28174028 -267.44715038 38.28207087 -266.11196899 39.27960205 C-266.44519165 38.70927246 -266.77841431 38.13894287 -267.12173462 37.55133057 C-268.62071524 34.98288493 -270.11638297 32.41252569 -271.61196899 29.84210205 C-272.13661743 28.94427002 -272.66126587 28.04643799 -273.20181274 27.12139893 C-273.69810181 26.26739502 -274.19439087 25.41339111 -274.70571899 24.5335083 C-275.39697876 23.34736938 -275.39697876 23.34736938 -276.10220337 22.13726807 C-277.11196899 20.27960205 -277.11196899 20.27960205 -277.11196899 19.27960205 C-244.44196899 19.27960205 -211.77196899 19.27960205 -178.11196899 19.27960205 C-171.73441829 30.75919333 -165.46351382 42.22227611 -159.48696899 53.90460205 C-158.76198015 55.31619989 -158.03672015 56.72765851 -157.31118774 58.13897705 C-155.57501551 61.51760437 -153.84241596 64.89803908 -152.11196899 68.27960205 C-147.54416646 61.3417133 -143.89328347 54.04048035 -140.23696899 46.59210205 C-139.34572763 44.78150831 -138.45315316 42.97160359 -137.5579834 41.16294861 C-136.74002606 39.50960298 -135.92608799 37.8542706 -135.11245728 36.1987915 C-132.24773356 30.48964335 -129.15531064 24.8947831 -126.11196899 19.27960205 C-125.01268066 19.29816254 -123.91339233 19.31672302 -122.78079224 19.33584595 C-112.31028032 19.50319559 -101.84138708 19.59394824 -91.36952972 19.61382103 C-85.98818236 19.62638458 -80.6096614 19.66391638 -75.22915649 19.76300049 C-40.23751391 20.47271877 -40.23751391 20.47271877 -10.11196899 4.27960205 C-8.68416303 3.22533535 -7.23645765 2.19724782 -5.76626587 1.20294189 C-4.8511322 0.56985611 -4.8511322 0.56985611 -3.91751099 -0.07601929 C-2.11196899 -0.72039795 -2.11196899 -0.72039795 0 0 Z M-250.11196899 67.27960205 C-249.89540649 68.26960205 -249.89540649 68.26960205 -249.67446899 69.27960205 C-246.91362481 84.00410435 -245.55227999 102.13378043 -251.11196899 116.27960205 C-251.45228149 117.16518799 -251.79259399 118.05077393 -252.14321899 118.9631958 C-254.84032372 125.09546432 -258.12623394 129.99237008 -264.11196899 133.27960205 C-269.77735095 134.25444069 -275.34985506 134.09712224 -281.08071899 133.9631958 C-282.72836189 133.95012275 -284.3760322 133.94016664 -286.02371216 133.93318176 C-290.33821139 133.90658945 -294.65103307 133.83794744 -298.96487427 133.76025391 C-303.37565421 133.68835118 -307.78670808 133.65661292 -312.19790649 133.62139893 C-320.83669297 133.54656419 -329.47412169 133.42726206 -338.11196899 133.27960205 C-337.37140259 132.48296143 -337.37140259 132.48296143 -336.61587524 131.67022705 C-335.97521118 130.9638208 -335.33454712 130.25741455 -334.67446899 129.52960205 C-334.03638306 128.8335083 -333.39829712 128.13741455 -332.74087524 127.42022705 C-329.67453206 123.3905962 -329.69882169 119.2373697 -330.11196899 114.27960205 C-332.01462482 108.46291139 -334.61603103 105.20297331 -340.11196899 102.27960205 C-343.67637317 101.09146732 -346.66671682 101.03772252 -350.42446899 100.96710205 C-351.71997681 100.92971924 -353.01548462 100.89233643 -354.35025024 100.8538208 C-359.73312173 101.46309701 -362.7039866 103.79339841 -366.36196899 107.65460205 C-369.7302075 112.70695981 -370.6315879 117.25202269 -370.11196899 123.27960205 C-368.72894595 129.75466447 -365.62298581 133.65986601 -360.11196899 137.27960205 C-357.24405663 138.23557284 -355.47431065 138.4031881 -352.49925232 138.39985657 C-351.07948845 138.40191856 -351.07948845 138.40191856 -349.63104248 138.40402222 C-348.07629715 138.3986293 -348.07629715 138.3986293 -346.49014282 138.39312744 C-345.39730484 138.39327347 -344.30446686 138.39341949 -343.17851257 138.39356995 C-339.55865509 138.3928721 -335.93884877 138.38508563 -332.31900024 138.3772583 C-329.81222054 138.37539367 -327.30544048 138.37396998 -324.79866028 138.37297058 C-318.87011895 138.36953979 -312.94159409 138.36165462 -307.01306123 138.35162109 C-299.6013723 138.33934959 -292.1896811 138.33397671 -284.77798462 138.32843018 C-271.55596822 138.31769914 -258.33397386 138.3001052 -245.11196899 138.27960205 C-245.11196899 147.84960205 -245.11196899 157.41960205 -245.11196899 167.27960205 C-242.53238475 164.05512175 -240.34546538 161.21843827 -238.22915649 157.7600708 C-237.70595825 156.90993408 -237.18276001 156.05979736 -236.64370728 155.18389893 C-235.82362183 153.83908447 -235.82362183 153.83908447 -234.98696899 152.46710205 C-228.30786826 141.53870153 -228.30786826 141.53870153 -225.00259399 136.5178833 C-224.29900757 135.43760864 -224.29900757 135.43760864 -223.58120728 134.33551025 C-222.705934 132.99684766 -221.81939007 131.6654653 -220.92007446 130.34283447 C-218.6413055 126.89665976 -218.6413055 126.89665976 -218.34317017 122.89605713 C-219.18158907 120.04266385 -220.31366368 117.75348206 -221.77993774 115.1663208 C-222.33705444 114.1765625 -222.89417114 113.1868042 -223.46817017 112.16705322 C-224.07249878 111.11106934 -224.67682739 110.05508545 -225.29946899 108.96710205 C-225.91862183 107.87437988 -226.53777466 106.78165771 -227.1756897 105.65582275 C-229.14442597 102.19123416 -231.12524536 98.73389088 -233.11196899 95.27960205 C-234.09423462 93.57030518 -234.09423462 93.57030518 -235.09634399 91.82647705 C-236.99146568 88.53654581 -238.89317481 85.25057078 -240.79946899 81.96710205 C-241.38687866 80.95414063 -241.97428833 79.9411792 -242.57949829 78.89752197 C-243.13033081 77.95497559 -243.68116333 77.0124292 -244.24868774 76.0413208 C-244.73039429 75.21591797 -245.21210083 74.39051514 -245.70840454 73.5401001 C-247.06740205 71.35137893 -248.53329926 69.31398831 -250.11196899 67.27960205 Z " fill="#FDF7F7" transform="translate(882.1119689941406,137.72039794921875)"/>
<path d="M0 0 C0.84575089 0.00202423 1.69150177 0.00404846 2.56288147 0.00613403 C3.89205345 0.00350555 3.89205345 0.00350555 5.24807739 0.00082397 C8.19222442 -0.00359583 11.13631191 -0.0006561 14.08045959 0.00271606 C16.11687736 0.00204306 18.15329504 0.00107307 20.18971252 -0.00018311 C24.46368675 -0.00166025 28.73764013 0.00049502 33.01161194 0.00515747 C38.50329498 0.01085477 43.99492916 0.00757585 49.48661041 0.00158501 C53.69348014 -0.00202015 57.90033818 -0.00088223 62.10720825 0.0017128 C64.13271083 0.00238219 66.15821446 0.00155321 68.18371582 -0.00076675 C71.00935189 -0.00329254 73.83490766 0.00054626 76.66053772 0.00613403 C77.5062886 0.0041098 78.35203949 0.00208557 79.22341919 0 C84.99744719 0.02126616 84.99744719 0.02126616 86.11170959 1.13552856 C86.22499509 3.67913446 86.27286903 6.19617391 86.27906799 8.7408905 C86.28486138 9.54716635 86.29065476 10.35344219 86.29662371 11.18415064 C86.31477586 13.90760208 86.3255823 16.63103262 86.33631897 19.35452271 C86.34748842 21.29913017 86.35900155 23.24373569 86.37083435 25.18833923 C86.40749279 31.59909358 86.43263972 38.00986798 86.45545959 44.42068481 C86.45940546 45.51183743 86.46335133 46.60299005 86.46741676 47.7272079 C86.50386594 58.02443886 86.53530777 68.32167664 86.55652618 78.61895084 C86.58404162 91.77804272 86.63466417 104.93659205 86.71700048 118.09545809 C86.772945 127.35169715 86.80178519 136.60778984 86.81099939 145.86419195 C86.81723706 151.38814419 86.83518029 156.91146154 86.88238525 162.43522835 C86.92634925 167.64502941 86.93644904 172.85385503 86.92175674 178.06381035 C86.92208299 179.96478768 86.93416921 181.86580966 86.95960617 183.76661682 C87.10222489 195.02911506 85.95147833 203.70596454 80.7845993 213.80983639 C78.60129097 218.15023696 77.35072195 222.4921455 76.23670959 227.19802856 C76.03819397 227.97339966 75.83967834 228.74877075 75.63514709 229.54763794 C72.9224864 240.38911632 72.707574 250.81410495 72.11170959 262.13552856 C46.04170959 262.13552856 19.97170959 262.13552856 -6.88829041 262.13552856 C-6.91031663 228.90269217 -6.92878817 195.66986284 -6.93935573 162.43702135 C-6.94060651 158.51775746 -6.94190083 154.5984936 -6.94322205 150.67922974 C-6.94348436 149.89894159 -6.94374667 149.11865345 -6.94401693 148.31472021 C-6.9483738 135.66363436 -6.95626144 123.01255303 -6.9654432 110.36146987 C-6.97477926 97.39005298 -6.98034591 84.41863847 -6.9823789 71.44721836 C-6.98375423 63.43665166 -6.98810534 55.42609774 -6.99620687 47.41553497 C-7.0020944 41.28349184 -7.00274949 35.15145856 -7.00139809 29.01941299 C-7.00167462 26.49618005 -7.00368243 23.97294665 -7.00749588 21.44971657 C-7.012426 18.02124357 -7.01129122 14.59282654 -7.00854492 11.16435242 C-7.01145776 10.15172775 -7.0143706 9.13910309 -7.01737171 8.09579283 C-7.01538067 7.18463554 -7.01338962 6.27347824 -7.01133823 5.33471012 C-7.01171795 4.54223379 -7.01209767 3.74975746 -7.0124889 2.9332667 C-6.72800796 -1.18451447 -3.35648213 0.01236216 0 0 Z " fill="#FBF5F5" transform="translate(337.88829040527344,-0.135528564453125)"/>
<path d="M0 0 C4.69101291 2.99105869 8.91215353 6.3090161 13.125 9.9375 C14.03572266 10.70610352 14.03572266 10.70610352 14.96484375 11.49023438 C24.60900373 19.75815802 24.60900373 19.75815802 25.16015625 26.8828125 C24.75357933 32.25756109 21.92688684 36.46673345 17.9375 39.9375 C13.47999155 43.06723997 10.34117813 43.10077695 5 43 C4.7525 44.216875 4.505 45.43375 4.25 46.6875 C2.87962935 52.90381903 0.9298413 58.93879942 -1 65 C-4.89064157 63.70311948 -7.56855114 62.37113924 -10 59 C-9.8046875 56.1953125 -9.8046875 56.1953125 -8.875 53.125 C-8.56820312 52.06410156 -8.26140625 51.00320312 -7.9453125 49.91015625 C-7.25363758 47.78082644 -6.51511224 45.66655867 -5.75 43.5625 C-4.84385757 40.46651336 -4.74307229 38.98520331 -6 36 C-8.95849927 33.66585353 -8.95849927 33.66585353 -12 32 C-13.43958847 33.58143471 -14.87658645 35.16522779 -16.3125 36.75 C-17.11300781 37.63171875 -17.91351562 38.5134375 -18.73828125 39.421875 C-20.60916911 41.55449328 -22.34084286 43.70187943 -24 46 C-28.46361162 44.63611867 -30.22436974 42.67118618 -33 39 C-32.47792969 38.44054687 -31.95585938 37.88109375 -31.41796875 37.3046875 C-26.96704906 32.45622507 -22.77101071 27.51857361 -18.75 22.3125 C-12.79997746 14.61196668 -6.43102168 7.30007866 0 0 Z M2 14 C0.61709113 15.47354349 -0.73177194 16.97916793 -2.0625 18.5 C-2.79597656 19.3353125 -3.52945313 20.170625 -4.28515625 21.03125 C-5.13400391 22.00578125 -5.13400391 22.00578125 -6 23 C-4.35448155 24.69391605 -2.69586177 26.35741137 -1 28 C-0.50757813 28.47695312 -0.01515625 28.95390625 0.4921875 29.4453125 C2.79946016 31.53739911 4.55292819 32.9041989 7.625 33.5625 C10.9229566 32.78140501 12.1176374 31.8235439 14 29 C14.63901252 25.6006304 14.63901252 25.6006304 13 22 C8.10212686 16.77893244 8.10212686 16.77893244 2 14 Z " fill="#EEE8E8" transform="translate(830,86)"/>
<path d="M0 0 C3.3 0 6.6 0 10 0 C11.13822833 3.41468499 11.3118613 6.35336845 11.53515625 9.94921875 C11.57813339 10.63949661 11.62111053 11.32977448 11.66539001 12.04096985 C11.75560518 13.50936738 11.84372999 14.9778946 11.92993164 16.4465332 C12.05937869 18.63473669 12.19811094 20.82220115 12.33789062 23.00976562 C12.93259548 32.68387757 13.11046917 42.30898986 13 52 C9.7 52 6.4 52 3 52 C1.89912807 44.98194143 1.90266908 38.09434233 2 31 C1.24976563 31.0721875 0.49953125 31.144375 -0.2734375 31.21875 C-6.87288627 31.81718868 -13.37457568 32.13192217 -20 32 C-19.67 32.66 -19.34 33.32 -19 34 C-18.64075654 37.17569637 -18.53305967 40.37108934 -18.375 43.5625 C-18.3234375 44.45130859 -18.271875 45.34011719 -18.21875 46.25585938 C-18.17492187 47.10083984 -18.13109375 47.94582031 -18.0859375 48.81640625 C-18.0451709 49.59443604 -18.0044043 50.37246582 -17.96240234 51.17407227 C-18 53 -18 53 -19 54 C-20.68608966 54.07205511 -22.37500659 54.08386068 -24.0625 54.0625 C-24.98160156 54.05347656 -25.90070312 54.04445312 -26.84765625 54.03515625 C-27.55792969 54.02355469 -28.26820313 54.01195312 -29 54 C-29.43001096 47.55893814 -29.85693483 41.11767692 -30.28173828 34.67626953 C-30.42653898 32.4861185 -30.57203987 30.29601364 -30.71826172 28.10595703 C-30.92861164 24.95357014 -31.13642259 21.80102444 -31.34375 18.6484375 C-31.40937134 17.67321136 -31.47499268 16.69798523 -31.54260254 15.69320679 C-31.84103759 11.11945442 -32.08058672 6.58672733 -32 2 C-30.35492782 1.80593522 -28.70890406 1.61992065 -27.0625 1.4375 C-25.68771484 1.28087891 -25.68771484 1.28087891 -24.28515625 1.12109375 C-23.53105469 1.08113281 -22.77695312 1.04117188 -22 1 C-20.38219843 2.61780157 -20.77727853 4.45635518 -20.68359375 6.69140625 C-20.62075195 8.10776367 -20.62075195 8.10776367 -20.55664062 9.55273438 C-20.51732422 10.54595703 -20.47800781 11.53917969 -20.4375 12.5625 C-20.39431641 13.55958984 -20.35113281 14.55667969 -20.30664062 15.58398438 C-20.20019702 18.0558415 -20.09818072 20.5278031 -20 23 C-19.34 22.67 -18.68 22.34 -18 22 C-16.5534758 21.84932786 -15.1012066 21.75138964 -13.6484375 21.68359375 C-12.79765625 21.64169922 -11.946875 21.59980469 -11.0703125 21.55664062 C-10.18085937 21.51732422 -9.29140625 21.47800781 -8.375 21.4375 C-7.4778125 21.39431641 -6.580625 21.35113281 -5.65625 21.30664062 C-3.43765717 21.20043139 -1.2189512 21.09838806 1 21 C0.92322021 20.34475342 0.84644043 19.68950684 0.76733398 19.0144043 C0.03525311 12.64229217 -0.08220606 6.41207256 0 0 Z " fill="#ECE7E7" transform="translate(716,52)"/>
<path d="M0 0 C2.27034078 1.93809579 3.95443678 3.68606832 5.5625 6.1875 C-0.6942325 10.23597397 -0.6942325 10.23597397 -4.3125 10 C-6.4375 9.1875 -6.4375 9.1875 -7.4375 8.1875 C-11.98127888 7.61483365 -15.44920945 7.64293174 -19.5 9.875 C-21.65846106 12.03617485 -21.65846106 12.03617485 -21.8125 14.875 C-21.67586166 17.14407219 -21.67586166 17.14407219 -20.4375 18.1875 C-15.36409587 18.4329873 -10.908483 18.16120491 -5.9375 17.125 C0.82055014 15.82064906 5.99319106 15.56978696 11.9375 19.3125 C15.24666193 22.9368202 17.42198969 26.16652825 17.65625 31.203125 C17.28171315 36.10955775 15.88199378 39.46318991 12.5625 43.1875 C3.9936772 49.18567596 -2.93092196 51.2901951 -13.4375 50.1875 C-16.59934801 49.02590645 -19.12209796 47.64875414 -21.4375 45.1875 C-22.0975 43.5375 -22.7575 41.8875 -23.4375 40.1875 C-20.1375 38.8675 -16.8375 37.5475 -13.4375 36.1875 C-12.4475 37.1775 -11.4575 38.1675 -10.4375 39.1875 C-7.98775696 40.41237152 -6.7621727 40.17546191 -4.0625 39.875 C-3.29164063 39.79636719 -2.52078125 39.71773437 -1.7265625 39.63671875 C0.69455499 39.16158477 2.45955891 38.47057199 4.5625 37.1875 C5.95681504 34.39886993 5.81910094 32.26671132 5.5625 29.1875 C2.17735094 26.93073396 1.53872233 27.01420752 -2.3125 27.5 C-3.15554688 27.59925781 -3.99859375 27.69851562 -4.8671875 27.80078125 C-6.55885805 28.05530311 -8.2441213 28.35771615 -9.91796875 28.7109375 C-15.81910932 29.82712223 -21.44004734 30.11488874 -26.9375 27.5625 C-30.80024116 23.8928959 -32.56114837 20.49260501 -32.875 15.1875 C-32.67023586 10.87926259 -31.29716729 8.47611738 -28.4375 5.1875 C-20.13893896 -2.33700871 -10.36894149 -5.46726006 0 0 Z " fill="#EDE7E7" transform="translate(651.4375,70.8125)"/>
<path d="M0 0 C9.51283221 1.79227274 9.51283221 1.79227274 12 5 C12.36076355 7.37284851 12.36076355 7.37284851 12.34057617 10.20581055 C12.34023628 11.79712044 12.34023628 11.79712044 12.33988953 13.420578 C12.32440567 14.56440445 12.30892181 15.7082309 12.29296875 16.88671875 C12.28872391 18.05886429 12.28447906 19.23100983 12.28010559 20.43867493 C12.26329072 24.18851534 12.22563232 27.93782157 12.1875 31.6875 C12.17245684 34.22720579 12.1587678 36.76691999 12.14648438 39.30664062 C12.11337796 45.53794319 12.06315028 51.76893344 12 58 C10.51988629 57.69201674 9.04092675 57.378482 7.5625 57.0625 C6.73878906 56.88847656 5.91507813 56.71445313 5.06640625 56.53515625 C3 56 3 56 2 55 C1.53787367 51.3429262 1.29570827 47.67523137 1 44 C-4.94 42.02 -10.88 40.04 -17 38 C-17.66 39.32 -18.32 40.64 -19 42 C-20.62746694 43.70496537 -22.28891311 45.37897032 -24 47 C-26.64 46.01 -29.28 45.02 -32 44 C-30.91321742 39.65286968 -29.07070006 37.24490348 -26.3125 33.875 C-25.31444494 32.63073683 -24.31708422 31.38591648 -23.3203125 30.140625 C-22.51835449 29.14385742 -22.51835449 29.14385742 -21.70019531 28.12695312 C-18.65873013 24.32206446 -15.67550429 20.47191077 -12.6875 16.625 C-12.11362549 15.88878418 -11.53975098 15.15256836 -10.94848633 14.39404297 C-7.24529327 9.63547473 -3.60135383 4.8360804 0 0 Z M1 14 C0.13030771 15.06608661 -0.69633926 16.1673645 -1.50390625 17.28125 C-1.99697266 17.95800781 -2.49003906 18.63476562 -2.99804688 19.33203125 C-3.51431641 20.04746094 -4.03058594 20.76289062 -4.5625 21.5 C-5.08263672 22.21542969 -5.60277344 22.93085937 -6.13867188 23.66796875 C-7.42869459 25.44322937 -8.71564205 27.22063895 -10 29 C-9.15570324 31.27426046 -9.15570324 31.27426046 -6.49609375 31.8515625 C-4.98208984 32.23441406 -4.98208984 32.23441406 -3.4375 32.625 C-1.643125 33.07875 0.15125 33.5325 2 34 C2 27.4 2 20.8 2 14 C1.67 14 1.34 14 1 14 Z " fill="#EDE7E7" transform="translate(774,61)"/>
<path d="M0 0 C0.66 0.33 1.32 0.66 2 1 C-3.28 6.28 -8.56 11.56 -14 17 C-14.66 16.67 -15.32 16.34 -16 16 C-10.96679794 10.22494276 -5.96260189 4.82082706 0 0 Z " fill="#C8C3C3" transform="translate(462,173)"/>
</svg>
